<svg xmlns="http://www.w3.org/2000/svg" width="75" viewBox="0 0 375 375" height="75" version="1.0"><defs><clipPath id="a"><path d="M 208 172 L 307 172 L 307 352.515625 L 208 352.515625 Z M 208 172"/></clipPath><clipPath id="b"><path d="M 69 172 L 211 172 L 211 352.515625 L 69 352.515625 Z M 69 172"/></clipPath><clipPath id="c"><path d="M 47.675781 170 L 209 170 L 209 279 L 47.675781 279 Z M 47.675781 170"/></clipPath><clipPath id="d"><path d="M 208 161 L 327.425781 161 L 327.425781 279 L 208 279 Z M 208 161"/></clipPath><clipPath id="e"><path d="M 185 22.515625 L 193 22.515625 L 193 42 L 185 42 Z M 185 22.515625"/></clipPath></defs><path fill="#5DCEBE" d="M 69.839844 170.910156 L 193.539062 152.542969 L 305.636719 161.972656 L 211.394531 208.105469 Z M 69.839844 170.910156"/><path fill="#E89256" d="M 189.292969 63.125 C 191.195312 63.125 193.09375 63.21875 194.988281 63.40625 C 196.878906 63.589844 198.761719 63.871094 200.625 64.242188 C 202.492188 64.613281 204.335938 65.074219 206.15625 65.625 C 207.976562 66.179688 209.765625 66.816406 211.523438 67.546875 C 213.28125 68.273438 215 69.085938 216.675781 69.980469 C 218.355469 70.878906 219.984375 71.855469 221.566406 72.914062 C 223.148438 73.96875 224.675781 75.101562 226.144531 76.308594 C 227.617188 77.515625 229.023438 78.789062 230.367188 80.132812 C 231.714844 81.480469 232.988281 82.886719 234.195312 84.355469 C 235.402344 85.828125 236.535156 87.351562 237.59375 88.933594 C 238.648438 90.515625 239.625 92.144531 240.523438 93.824219 C 241.421875 95.5 242.234375 97.21875 242.960938 98.976562 C 243.6875 100.730469 244.328125 102.519531 244.882812 104.339844 C 245.433594 106.160156 245.894531 108.003906 246.265625 109.867188 C 246.636719 111.734375 246.917969 113.613281 247.101562 115.507812 C 247.289062 117.398438 247.382812 119.296875 247.382812 121.199219 L 247.382812 202.199219 C 247.382812 204.101562 247.289062 206 247.101562 207.890625 C 246.917969 209.785156 246.636719 211.664062 246.265625 213.53125 C 245.894531 215.394531 245.433594 217.238281 244.882812 219.058594 C 244.328125 220.878906 243.6875 222.667969 242.960938 224.425781 C 242.234375 226.179688 241.421875 227.898438 240.523438 229.574219 C 239.625 231.253906 238.648438 232.882812 237.59375 234.464844 C 236.535156 236.046875 235.402344 237.570312 234.195312 239.042969 C 232.988281 240.511719 231.714844 241.917969 230.367188 243.265625 C 229.023438 244.609375 227.617188 245.886719 226.144531 247.089844 C 224.675781 248.296875 223.148438 249.429688 221.566406 250.488281 C 219.984375 251.542969 218.355469 252.519531 216.675781 253.417969 C 215 254.3125 213.28125 255.125 211.523438 255.851562 C 209.765625 256.582031 207.976562 257.222656 206.15625 257.773438 C 204.335938 258.324219 202.492188 258.785156 200.625 259.15625 C 198.761719 259.527344 196.878906 259.808594 194.988281 259.992188 C 193.09375 260.179688 191.195312 260.273438 189.292969 260.273438 C 187.390625 260.273438 185.492188 260.179688 183.597656 259.992188 C 181.707031 259.808594 179.828125 259.527344 177.960938 259.15625 C 176.09375 258.785156 174.25 258.324219 172.429688 257.773438 C 170.609375 257.222656 168.820312 256.582031 167.0625 255.851562 C 165.304688 255.125 163.589844 254.3125 161.910156 253.417969 C 160.234375 252.519531 158.601562 251.542969 157.019531 250.488281 C 155.4375 249.429688 153.914062 248.296875 152.441406 247.089844 C 150.972656 245.886719 149.5625 244.609375 148.21875 243.265625 C 146.871094 241.917969 145.597656 240.511719 144.390625 239.042969 C 143.183594 237.570312 142.050781 236.046875 140.992188 234.464844 C 139.9375 232.882812 138.960938 231.253906 138.0625 229.574219 C 137.167969 227.898438 136.355469 226.179688 135.625 224.425781 C 134.898438 222.667969 134.257812 220.878906 133.707031 219.058594 C 133.152344 217.238281 132.691406 215.394531 132.320312 213.53125 C 131.949219 211.664062 131.671875 209.785156 131.484375 207.890625 C 131.296875 206 131.203125 204.101562 131.203125 202.199219 L 131.203125 121.199219 C 131.203125 119.296875 131.296875 117.398438 131.484375 115.507812 C 131.671875 113.613281 131.949219 111.734375 132.320312 109.867188 C 132.691406 108.003906 133.152344 106.160156 133.707031 104.339844 C 134.257812 102.519531 134.898438 100.730469 135.625 98.976562 C 136.355469 97.21875 137.167969 95.5 138.0625 93.824219 C 138.960938 92.144531 139.9375 90.515625 140.992188 88.933594 C 142.050781 87.351562 143.183594 85.828125 144.390625 84.355469 C 145.597656 82.886719 146.871094 81.480469 148.21875 80.132812 C 149.5625 78.789062 150.972656 77.515625 152.441406 76.308594 C 153.914062 75.101562 155.4375 73.96875 157.019531 72.914062 C 158.601562 71.855469 160.234375 70.878906 161.910156 69.980469 C 163.589844 69.085938 165.304688 68.273438 167.0625 67.546875 C 168.820312 66.816406 170.609375 66.179688 172.429688 65.625 C 174.25 65.074219 176.09375 64.613281 177.960938 64.242188 C 179.828125 63.871094 181.707031 63.589844 183.597656 63.40625 C 185.492188 63.21875 187.390625 63.125 189.292969 63.125 Z M 189.292969 63.125"/><path fill="#FCEADE" d="M 204.800781 162.851562 C 199.261719 162.566406 198.898438 63.507812 194.410156 63.191406 C 188.644531 62.75 193.367188 62.855469 188.640625 62.847656 C 183.914062 62.839844 182.96875 63.242188 182.96875 63.242188 C 178.023438 63.757812 178.722656 162.976562 173.628906 163.941406 C 154.582031 167.542969 133.59375 187.996094 133.59375 210.886719 C 133.59375 233.773438 150.230469 261.15625 189.300781 261.15625 C 228.371094 261.15625 245.046875 231.859375 245.046875 209.019531 C 245.046875 187.394531 210.359375 163.136719 204.800781 162.851562 Z M 204.800781 162.851562" fill-rule="evenodd"/><path fill="#491F14" d="M 163.632812 87.855469 L 165.832031 93.136719 C 165.832031 93.136719 149.4375 89.695312 135.058594 107.265625 C 135.058594 107.320312 141.847656 88.671875 163.632812 87.855469 Z M 163.632812 87.855469"/><path fill="#491F14" d="M 213.203125 87.855469 L 211.011719 93.136719 C 211.011719 93.136719 227.40625 89.695312 241.785156 107.265625 C 241.785156 107.320312 234.992188 88.671875 213.203125 87.855469 Z M 213.203125 87.855469"/><path fill="#823E2E" d="M 230.628906 80.207031 C 230.628906 80.207031 288.367188 123 297.550781 182.722656 C 306.734375 242.445312 266.34375 269.382812 243.917969 256.644531 C 221.488281 243.90625 229.390625 212.792969 242.542969 160.390625 C 256.269531 105.636719 230.628906 80.207031 230.628906 80.207031 Z M 230.628906 80.207031"/><path fill="#6B3227" d="M 248.589844 160.390625 C 256.914062 127.191406 250.769531 104.785156 244.628906 92.277344 C 240.179688 88 235.507812 83.976562 230.621094 80.207031 C 230.621094 80.207031 256.261719 105.636719 242.535156 160.390625 C 229.398438 212.800781 221.488281 243.914062 243.910156 256.648438 C 246.214844 257.925781 248.660156 258.8125 251.246094 259.3125 C 253.832031 259.8125 256.433594 259.898438 259.046875 259.574219 C 255.820312 259.21875 252.792969 258.242188 249.964844 256.648438 C 227.542969 243.914062 235.453125 212.800781 248.589844 160.390625 Z M 248.589844 160.390625" fill-opacity=".647"/><path fill="#6B3126" d="M 286.578125 159.261719 C 285.425781 151.890625 283.585938 144.695312 281.050781 137.679688 C 288.753906 151.035156 294.996094 166.238281 297.554688 182.722656 C 306.738281 242.445312 266.347656 269.382812 243.921875 256.644531 C 234.640625 251.363281 230.5625 242.957031 229.894531 231.179688 C 230.878906 231.902344 231.90625 232.5625 232.972656 233.160156 C 255.390625 245.917969 295.78125 218.984375 286.578125 159.261719 Z M 286.578125 159.261719" fill-opacity=".459"/><path fill="#CE763A" d="M 250.664062 139.335938 C 250.664062 139.730469 250.664062 140.121094 250.628906 140.503906 C 250.59375 141.367188 250.511719 142.222656 250.390625 143.078125 C 250.269531 143.933594 250.109375 144.777344 249.90625 145.617188 C 249.707031 146.457031 249.464844 147.285156 249.183594 148.101562 C 248.90625 148.914062 248.585938 149.714844 248.230469 150.503906 C 247.871094 151.289062 247.476562 152.054688 247.046875 152.800781 C 246.617188 153.550781 246.152344 154.277344 245.652344 154.980469 C 245.152344 155.683594 244.621094 156.359375 244.058594 157.011719 C 243.492188 157.667969 242.898438 158.289062 242.273438 158.886719 C 241.648438 159.484375 241 160.046875 240.320312 160.582031 C 239.644531 161.117188 238.941406 161.617188 238.214844 162.082031 C 237.488281 162.550781 236.742188 162.980469 235.976562 163.375 C 235.210938 163.773438 234.425781 164.128906 233.625 164.449219 C 232.824219 164.773438 232.007812 165.054688 231.179688 165.296875 C 230.351562 165.539062 229.515625 165.742188 228.667969 165.90625 C 227.820312 166.070312 226.96875 166.191406 226.109375 166.273438 C 225.25 166.355469 224.386719 166.394531 223.523438 166.394531 C 222.660156 166.394531 221.800781 166.351562 220.941406 166.269531 C 220.082031 166.1875 219.230469 166.0625 218.382812 165.898438 C 217.535156 165.734375 216.695312 165.53125 215.871094 165.285156 C 215.042969 165.042969 214.226562 164.757812 213.425781 164.4375 C 212.625 164.113281 211.84375 163.753906 211.078125 163.359375 C 210.308594 162.960938 209.5625 162.527344 208.839844 162.0625 C 208.113281 161.59375 207.414062 161.09375 206.734375 160.558594 C 206.058594 160.023438 205.410156 159.457031 204.785156 158.859375 C 204.164062 158.261719 203.570312 157.636719 203.003906 156.984375 C 202.441406 156.328125 201.910156 155.652344 201.414062 154.945312 C 200.914062 154.242188 200.449219 153.515625 200.019531 152.769531 C 199.59375 152.019531 199.199219 151.25 198.84375 150.464844 C 198.488281 149.679688 198.171875 148.878906 197.890625 148.0625 C 197.609375 147.246094 197.371094 146.417969 197.171875 145.578125 C 196.972656 144.738281 196.8125 143.894531 196.691406 143.039062 C 196.570312 142.183594 196.492188 141.324219 196.457031 140.464844 C 196.457031 140.324219 196.457031 140.171875 196.457031 140.035156 C 196.457031 139.894531 196.457031 139.566406 196.457031 139.335938 C 196.457031 139.105469 196.457031 139.003906 196.457031 138.839844 C 196.476562 137.566406 196.589844 136.300781 196.792969 135.046875 C 196.832031 134.8125 196.867188 134.582031 196.910156 134.386719 C 196.910156 134.367188 196.910156 134.34375 196.910156 134.324219 C 197.195312 132.832031 197.601562 131.371094 198.128906 129.941406 C 198.65625 128.515625 199.300781 127.144531 200.0625 125.824219 C 200.824219 124.507812 201.6875 123.261719 202.65625 122.089844 C 203.628906 120.917969 204.6875 119.832031 205.839844 118.839844 C 206.992188 117.847656 208.222656 116.957031 209.523438 116.167969 C 210.828125 115.382812 212.183594 114.707031 213.601562 114.152344 C 215.015625 113.59375 216.46875 113.15625 217.957031 112.84375 C 219.449219 112.527344 220.953125 112.34375 222.472656 112.28125 L 223.554688 112.28125 C 224.441406 112.28125 225.328125 112.328125 226.210938 112.414062 C 227.09375 112.5 227.96875 112.632812 228.839844 112.804688 C 229.707031 112.976562 230.566406 113.191406 231.414062 113.449219 C 232.261719 113.707031 233.097656 114.007812 233.917969 114.34375 C 234.734375 114.683594 235.535156 115.0625 236.316406 115.480469 C 237.101562 115.898438 237.859375 116.351562 238.597656 116.84375 C 239.335938 117.335938 240.046875 117.863281 240.730469 118.425781 C 241.417969 118.988281 242.074219 119.582031 242.703125 120.207031 C 243.328125 120.835938 243.925781 121.492188 244.488281 122.175781 C 245.050781 122.859375 245.578125 123.570312 246.074219 124.304688 C 246.566406 125.042969 247.023438 125.800781 247.441406 126.582031 C 247.859375 127.363281 248.242188 128.164062 248.582031 128.980469 C 248.921875 129.800781 249.222656 130.632812 249.480469 131.480469 C 249.738281 132.328125 249.957031 133.1875 250.132812 134.054688 C 250.304688 134.925781 250.4375 135.800781 250.527344 136.683594 C 250.617188 137.566406 250.660156 138.449219 250.664062 139.335938 Z M 250.664062 139.335938" fill-opacity=".329"/><path fill="#FFF" d="M 255.390625 134.417969 L 255.390625 135.117188 C 255.390625 135.117188 255.390625 135.433594 255.390625 135.585938 C 255.351562 136.449219 255.273438 137.304688 255.152344 138.160156 C 255.03125 139.015625 254.867188 139.863281 254.667969 140.699219 C 254.464844 141.539062 254.222656 142.367188 253.945312 143.183594 C 253.664062 144 253.34375 144.800781 252.988281 145.585938 C 252.628906 146.371094 252.238281 147.136719 251.804688 147.882812 C 251.375 148.632812 250.910156 149.359375 250.410156 150.0625 C 249.910156 150.765625 249.378906 151.441406 248.816406 152.097656 C 248.25 152.75 247.65625 153.371094 247.03125 153.96875 C 246.40625 154.566406 245.757812 155.128906 245.078125 155.664062 C 244.402344 156.195312 243.699219 156.699219 242.972656 157.164062 C 242.246094 157.628906 241.5 158.0625 240.734375 158.457031 C 239.96875 158.851562 239.183594 159.210938 238.382812 159.53125 C 237.582031 159.851562 236.765625 160.132812 235.9375 160.378906 C 235.109375 160.621094 234.273438 160.824219 233.425781 160.984375 C 232.578125 161.148438 231.722656 161.269531 230.863281 161.351562 C 230.003906 161.433594 229.144531 161.472656 228.28125 161.472656 C 227.417969 161.472656 226.558594 161.429688 225.699219 161.347656 C 224.839844 161.265625 223.984375 161.140625 223.140625 160.976562 C 222.292969 160.8125 221.453125 160.609375 220.625 160.363281 C 219.796875 160.121094 218.984375 159.835938 218.183594 159.515625 C 217.382812 159.191406 216.601562 158.832031 215.832031 158.4375 C 215.066406 158.039062 214.320312 157.605469 213.597656 157.140625 C 212.871094 156.671875 212.171875 156.167969 211.492188 155.632812 C 210.816406 155.101562 210.167969 154.535156 209.542969 153.9375 C 208.921875 153.339844 208.328125 152.714844 207.761719 152.0625 C 207.199219 151.40625 206.667969 150.726562 206.171875 150.023438 C 205.671875 149.320312 205.207031 148.59375 204.78125 147.84375 C 204.351562 147.097656 203.957031 146.328125 203.601562 145.542969 C 203.246094 144.757812 202.929688 143.957031 202.648438 143.140625 C 202.371094 142.324219 202.128906 141.496094 201.929688 140.65625 C 201.730469 139.816406 201.570312 138.96875 201.449219 138.113281 C 201.332031 137.261719 201.253906 136.402344 201.214844 135.539062 C 201.214844 135.171875 201.214844 134.792969 201.214844 134.417969 C 201.214844 133.585938 201.253906 132.757812 201.328125 131.933594 C 201.40625 131.105469 201.519531 130.28125 201.671875 129.464844 C 201.820312 128.648438 202.011719 127.839844 202.234375 127.042969 C 202.460938 126.242188 202.722656 125.457031 203.023438 124.679688 C 203.320312 123.90625 203.652344 123.144531 204.019531 122.402344 C 204.390625 121.65625 204.789062 120.929688 205.226562 120.222656 C 205.660156 119.515625 206.125 118.828125 206.625 118.164062 C 207.121094 117.5 207.648438 116.859375 208.207031 116.242188 C 208.761719 115.625 209.347656 115.035156 209.957031 114.472656 C 210.570312 113.910156 211.203125 113.375 211.863281 112.871094 C 212.523438 112.367188 213.207031 111.894531 213.910156 111.453125 C 214.613281 111.011719 215.335938 110.601562 216.078125 110.226562 C 216.816406 109.851562 217.574219 109.511719 218.347656 109.207031 C 219.121094 108.898438 219.902344 108.628906 220.699219 108.398438 C 221.5 108.164062 222.304688 107.964844 223.121094 107.804688 C 223.933594 107.648438 224.757812 107.523438 225.582031 107.441406 C 226.410156 107.355469 227.238281 107.3125 228.066406 107.304688 C 228.898438 107.292969 229.726562 107.324219 230.554688 107.394531 C 231.382812 107.460938 232.207031 107.566406 233.027344 107.710938 C 233.84375 107.855469 234.652344 108.035156 235.457031 108.253906 C 236.257812 108.472656 237.046875 108.726562 237.824219 109.019531 C 238.601562 109.308594 239.367188 109.636719 240.113281 109.996094 C 240.863281 110.355469 241.59375 110.75 242.304688 111.179688 C 243.015625 111.605469 243.707031 112.066406 244.375 112.558594 C 245.046875 113.050781 245.691406 113.570312 246.3125 114.121094 C 246.933594 114.671875 247.53125 115.25 248.097656 115.855469 C 248.667969 116.460938 249.207031 117.09375 249.71875 117.75 C 250.226562 118.402344 250.707031 119.082031 251.15625 119.78125 C 251.605469 120.480469 252.019531 121.199219 252.402344 121.933594 C 252.785156 122.671875 253.132812 123.425781 253.445312 124.195312 C 253.757812 124.964844 254.035156 125.746094 254.277344 126.539062 C 254.515625 127.335938 254.722656 128.140625 254.886719 128.953125 C 254.921875 129.097656 254.949219 129.257812 254.972656 129.402344 C 255 129.546875 255.058594 129.882812 255.09375 130.121094 C 255.300781 131.378906 255.417969 132.648438 255.4375 133.921875 C 255.390625 134.089844 255.390625 134.253906 255.390625 134.417969 Z M 255.390625 134.417969"/><path fill="#F2F2F2" d="M 255.417969 137.296875 C 255.402344 138.175781 255.347656 139.054688 255.246094 139.925781 C 255.148438 140.800781 255.007812 141.667969 254.824219 142.53125 C 254.640625 143.390625 254.414062 144.242188 254.148438 145.078125 C 253.882812 145.917969 253.578125 146.742188 253.230469 147.550781 C 252.882812 148.359375 252.5 149.152344 252.078125 149.921875 C 251.652344 150.695312 251.191406 151.441406 250.695312 152.167969 C 250.199219 152.898438 249.671875 153.597656 249.105469 154.273438 C 248.542969 154.949219 247.945312 155.59375 247.320312 156.210938 C 246.691406 156.828125 246.035156 157.414062 245.351562 157.96875 C 244.667969 158.523438 243.957031 159.042969 243.222656 159.527344 C 242.488281 160.011719 241.730469 160.457031 240.953125 160.871094 C 240.175781 161.28125 239.378906 161.652344 238.5625 161.988281 C 237.75 162.320312 236.921875 162.613281 236.078125 162.867188 C 235.234375 163.121094 234.382812 163.332031 233.519531 163.5 C 232.652344 163.671875 231.785156 163.796875 230.90625 163.882812 C 230.03125 163.96875 229.152344 164.011719 228.273438 164.011719 C 227.394531 164.011719 226.515625 163.96875 225.640625 163.882812 C 224.761719 163.796875 223.894531 163.671875 223.03125 163.5 C 222.164062 163.332031 221.3125 163.121094 220.46875 162.867188 C 219.625 162.613281 218.796875 162.320312 217.984375 161.988281 C 217.167969 161.652344 216.371094 161.28125 215.59375 160.871094 C 214.816406 160.457031 214.058594 160.011719 213.324219 159.527344 C 212.589844 159.042969 211.878906 158.523438 211.195312 157.96875 C 210.511719 157.414062 209.855469 156.828125 209.226562 156.210938 C 208.601562 155.59375 208.003906 154.949219 207.441406 154.273438 C 206.875 153.597656 206.347656 152.898438 205.851562 152.167969 C 205.355469 151.441406 204.894531 150.695312 204.472656 149.921875 C 204.046875 149.152344 203.664062 148.359375 203.316406 147.550781 C 202.96875 146.742188 202.664062 145.917969 202.398438 145.078125 C 202.132812 144.242188 201.90625 143.390625 201.722656 142.53125 C 201.539062 141.667969 201.398438 140.800781 201.300781 139.925781 C 201.199219 139.054688 201.144531 138.175781 201.128906 137.296875 C 201.128906 136.425781 201.171875 135.558594 201.261719 134.695312 C 201.339844 135.527344 201.457031 136.355469 201.609375 137.175781 C 201.765625 137.996094 201.957031 138.808594 202.1875 139.609375 C 202.417969 140.414062 202.683594 141.203125 202.984375 141.984375 C 203.289062 142.761719 203.625 143.527344 204 144.273438 C 204.371094 145.019531 204.777344 145.75 205.21875 146.457031 C 205.660156 147.167969 206.132812 147.855469 206.636719 148.523438 C 207.140625 149.1875 207.675781 149.832031 208.238281 150.449219 C 208.800781 151.066406 209.390625 151.65625 210.007812 152.21875 C 210.628906 152.78125 211.269531 153.3125 211.9375 153.816406 C 212.605469 154.316406 213.292969 154.789062 214.003906 155.230469 C 214.714844 155.667969 215.445312 156.074219 216.191406 156.445312 C 216.941406 156.820312 217.703125 157.15625 218.484375 157.457031 C 219.261719 157.757812 220.054688 158.023438 220.859375 158.25 C 221.660156 158.480469 222.472656 158.671875 223.296875 158.824219 C 224.117188 158.976562 224.941406 159.09375 225.773438 159.171875 C 226.605469 159.246094 227.441406 159.285156 228.277344 159.285156 C 229.113281 159.285156 229.945312 159.246094 230.777344 159.171875 C 231.609375 159.09375 232.4375 158.976562 233.257812 158.824219 C 234.078125 158.671875 234.890625 158.480469 235.695312 158.25 C 236.5 158.023438 237.292969 157.757812 238.070312 157.457031 C 238.851562 157.15625 239.613281 156.820312 240.363281 156.445312 C 241.109375 156.074219 241.839844 155.667969 242.550781 155.230469 C 243.261719 154.789062 243.949219 154.316406 244.617188 153.816406 C 245.285156 153.3125 245.925781 152.78125 246.542969 152.21875 C 247.160156 151.65625 247.753906 151.066406 248.316406 150.449219 C 248.878906 149.832031 249.414062 149.1875 249.917969 148.523438 C 250.421875 147.855469 250.894531 147.167969 251.335938 146.457031 C 251.773438 145.75 252.179688 145.019531 252.554688 144.273438 C 252.925781 143.527344 253.265625 142.761719 253.566406 141.984375 C 253.871094 141.203125 254.136719 140.414062 254.367188 139.609375 C 254.597656 138.808594 254.789062 137.996094 254.941406 137.175781 C 255.097656 136.355469 255.214844 135.527344 255.292969 134.695312 C 255.378906 135.554688 255.417969 136.417969 255.417969 137.296875 Z M 255.417969 137.296875"/><path fill="#3A1811" d="M 231.175781 120.492188 C 231.097656 120.054688 231.066406 119.617188 231.082031 119.171875 C 231.097656 118.730469 231.160156 118.292969 231.269531 117.863281 C 231.375 117.433594 231.527344 117.019531 231.722656 116.625 C 231.917969 116.226562 232.152344 115.851562 232.429688 115.503906 C 232.703125 115.15625 233.011719 114.839844 233.351562 114.558594 C 233.691406 114.273438 234.058594 114.03125 234.453125 113.824219 C 234.84375 113.621094 235.253906 113.457031 235.679688 113.339844 C 236.109375 113.21875 236.542969 113.148438 236.984375 113.121094 C 237.425781 113.09375 237.867188 113.113281 238.304688 113.175781 C 238.746094 113.242188 239.171875 113.355469 239.585938 113.511719 C 240 113.667969 240.394531 113.863281 240.765625 114.101562 C 241.140625 114.34375 241.484375 114.617188 241.800781 114.929688 C 242.113281 115.242188 242.394531 115.582031 242.636719 115.953125 C 242.878906 116.324219 243.078125 116.714844 243.238281 117.128906 C 243.398438 117.542969 243.511719 117.96875 243.582031 118.40625 C 243.652344 118.84375 243.675781 119.285156 243.652344 119.726562 C 243.628906 120.167969 243.5625 120.605469 243.445312 121.03125 C 243.332031 121.460938 243.171875 121.871094 242.96875 122.265625 C 242.769531 122.660156 242.527344 123.027344 242.246094 123.371094 C 241.964844 123.714844 241.652344 124.027344 241.308594 124.304688 C 240.960938 124.582031 240.589844 124.820312 240.195312 125.015625 C 239.800781 125.214844 239.386719 125.371094 238.957031 125.484375 C 238.53125 125.59375 238.09375 125.660156 237.652344 125.679688 C 237.207031 125.699219 236.769531 125.675781 236.332031 125.601562 C 235.691406 125.492188 235.082031 125.289062 234.503906 124.996094 C 233.925781 124.699219 233.40625 124.320312 232.941406 123.863281 C 232.480469 123.40625 232.101562 122.890625 231.796875 122.316406 C 231.496094 121.738281 231.289062 121.132812 231.175781 120.492188 Z M 231.175781 120.492188"/><path fill="#823E2E" d="M 216.949219 165.132812 C 214.578125 174.546875 199.125 189.707031 188.882812 189.707031 C 178.789062 189.707031 162.410156 176.359375 160.171875 166.441406 C 159.511719 163.617188 160 161.082031 162.09375 159.179688 C 169.210938 152.726562 206.644531 151.855469 215.699219 159.179688 C 217.304688 160.488281 217.601562 162.601562 216.949219 165.132812 Z M 216.949219 165.132812" fill-rule="evenodd"/><path fill="#632B18" d="M 216.949219 165.132812 C 214.578125 174.546875 199.125 189.707031 188.882812 189.707031 C 178.789062 189.707031 162.410156 176.359375 160.171875 166.441406 C 160.523438 165.253906 161.164062 164.246094 162.09375 163.425781 C 169.210938 156.964844 206.644531 156.097656 215.699219 163.425781 C 216.265625 163.886719 216.679688 164.457031 216.949219 165.132812 Z M 216.949219 165.132812" fill-rule="evenodd"/><path fill="#823E2E" d="M 147.886719 80.207031 C 147.886719 80.207031 90.148438 123 80.972656 182.722656 C 71.792969 242.445312 112.179688 269.382812 134.605469 256.644531 C 157.03125 243.90625 149.128906 212.792969 135.976562 160.390625 C 122.253906 105.636719 147.886719 80.207031 147.886719 80.207031 Z M 147.886719 80.207031"/><path fill="#6B3227" d="M 129.921875 160.390625 C 121.605469 127.191406 127.75 104.785156 133.882812 92.277344 C 138.335938 88.003906 143.007812 83.976562 147.894531 80.207031 C 147.894531 80.207031 122.257812 105.636719 136.011719 160.390625 C 149.148438 212.800781 157.058594 243.914062 134.636719 256.648438 C 132.332031 257.925781 129.886719 258.8125 127.300781 259.3125 C 124.714844 259.8125 122.113281 259.898438 119.5 259.574219 C 122.726562 259.21875 125.753906 258.242188 128.582031 256.648438 C 150.976562 243.914062 143.066406 212.800781 129.921875 160.390625 Z M 129.921875 160.390625" fill-opacity=".647"/><path fill="#6B3126" d="M 91.917969 159.261719 C 93.074219 151.890625 94.914062 144.699219 97.441406 137.679688 C 89.746094 151.035156 83.507812 166.238281 80.9375 182.722656 C 71.753906 242.445312 112.144531 269.382812 134.570312 256.644531 C 143.8125 251.363281 147.933594 242.957031 148.601562 231.179688 C 147.613281 231.902344 146.585938 232.5625 145.515625 233.160156 C 123.128906 245.917969 82.742188 218.984375 91.917969 159.261719 Z M 91.917969 159.261719" fill-opacity=".459"/><path fill="#CE763A" d="M 181.511719 138.945312 L 181.511719 140.121094 C 181.449219 141.671875 181.253906 143.207031 180.929688 144.722656 C 180.601562 146.242188 180.148438 147.71875 179.570312 149.160156 C 178.988281 150.601562 178.292969 151.980469 177.472656 153.300781 C 176.65625 154.621094 175.734375 155.859375 174.703125 157.023438 C 173.671875 158.183594 172.550781 159.246094 171.339844 160.214844 C 170.125 161.183594 168.839844 162.042969 167.476562 162.792969 C 166.117188 163.539062 164.703125 164.164062 163.234375 164.667969 C 161.765625 165.175781 160.265625 165.550781 158.730469 165.796875 C 157.199219 166.042969 155.65625 166.160156 154.105469 166.140625 C 152.550781 166.121094 151.011719 165.972656 149.484375 165.691406 C 147.957031 165.40625 146.46875 164.996094 145.011719 164.457031 C 143.554688 163.921875 142.15625 163.261719 140.8125 162.484375 C 139.46875 161.703125 138.203125 160.816406 137.011719 159.820312 C 135.820312 158.824219 134.726562 157.730469 133.722656 156.546875 C 132.71875 155.363281 131.824219 154.101562 131.039062 152.761719 C 130.25 151.425781 129.585938 150.027344 129.039062 148.574219 C 128 145.847656 127.421875 143.023438 127.308594 140.109375 C 127.308594 139.96875 127.308594 139.816406 127.308594 139.679688 C 127.308594 139.539062 127.308594 139.210938 127.308594 138.980469 C 127.308594 138.746094 127.308594 138.648438 127.308594 138.484375 C 127.328125 137.210938 127.445312 135.945312 127.652344 134.6875 C 127.691406 134.457031 127.71875 134.226562 127.765625 134.027344 C 127.761719 134.007812 127.761719 133.988281 127.765625 133.96875 C 128.046875 132.476562 128.453125 131.015625 128.984375 129.585938 C 129.511719 128.160156 130.15625 126.789062 130.917969 125.472656 C 131.679688 124.152344 132.542969 122.90625 133.511719 121.734375 C 134.484375 120.5625 135.542969 119.480469 136.695312 118.488281 C 137.847656 117.492188 139.078125 116.601562 140.378906 115.816406 C 141.679688 115.027344 143.039062 114.355469 144.457031 113.796875 C 145.871094 113.238281 147.324219 112.800781 148.8125 112.488281 C 150.300781 112.171875 151.804688 111.984375 153.328125 111.925781 L 154.410156 111.925781 C 155.296875 111.925781 156.179688 111.96875 157.0625 112.058594 C 157.941406 112.144531 158.816406 112.273438 159.6875 112.449219 C 160.554688 112.621094 161.414062 112.835938 162.261719 113.09375 C 163.109375 113.347656 163.941406 113.648438 164.761719 113.984375 C 165.578125 114.324219 166.378906 114.703125 167.160156 115.121094 C 167.941406 115.535156 168.703125 115.992188 169.4375 116.480469 C 170.175781 116.972656 170.886719 117.5 171.570312 118.0625 C 172.257812 118.621094 172.914062 119.214844 173.539062 119.839844 C 174.167969 120.464844 174.761719 121.121094 175.328125 121.804688 C 175.890625 122.488281 176.417969 123.199219 176.910156 123.933594 C 177.40625 124.667969 177.859375 125.425781 178.28125 126.207031 C 178.699219 126.988281 179.078125 127.785156 179.421875 128.601562 C 179.761719 129.421875 180.0625 130.253906 180.320312 131.097656 C 180.582031 131.945312 180.796875 132.804688 180.972656 133.671875 C 181.148438 134.539062 181.28125 135.414062 181.371094 136.296875 C 181.460938 137.175781 181.507812 138.058594 181.511719 138.945312 Z M 181.511719 138.945312" fill-opacity=".329"/><path fill="#FFF" d="M 176.558594 134.140625 L 176.558594 135.308594 C 176.519531 136.171875 176.441406 137.027344 176.320312 137.882812 C 176.199219 138.738281 176.035156 139.585938 175.835938 140.421875 C 175.632812 141.261719 175.394531 142.089844 175.113281 142.90625 C 174.832031 143.722656 174.511719 144.523438 174.15625 145.308594 C 173.796875 146.09375 173.40625 146.859375 172.972656 147.609375 C 172.542969 148.355469 172.078125 149.082031 171.578125 149.785156 C 171.078125 150.488281 170.546875 151.164062 169.984375 151.820312 C 169.417969 152.472656 168.824219 153.09375 168.199219 153.691406 C 167.574219 154.289062 166.925781 154.851562 166.246094 155.386719 C 165.570312 155.917969 164.867188 156.421875 164.140625 156.886719 C 163.414062 157.355469 162.667969 157.785156 161.902344 158.179688 C 161.136719 158.574219 160.351562 158.933594 159.550781 159.253906 C 158.75 159.574219 157.933594 159.855469 157.105469 160.101562 C 156.277344 160.34375 155.441406 160.546875 154.59375 160.707031 C 153.746094 160.871094 152.890625 160.992188 152.03125 161.074219 C 151.171875 161.15625 150.3125 161.199219 149.449219 161.195312 C 148.585938 161.195312 147.726562 161.152344 146.867188 161.070312 C 146.007812 160.988281 145.152344 160.863281 144.308594 160.699219 C 143.460938 160.535156 142.621094 160.332031 141.792969 160.085938 C 140.96875 159.84375 140.152344 159.558594 139.351562 159.238281 C 138.550781 158.914062 137.769531 158.554688 137 158.160156 C 136.234375 157.761719 135.488281 157.328125 134.765625 156.863281 C 134.039062 156.394531 133.339844 155.890625 132.660156 155.359375 C 131.984375 154.824219 131.335938 154.257812 130.710938 153.660156 C 130.089844 153.0625 129.496094 152.4375 128.929688 151.785156 C 128.367188 151.128906 127.835938 150.449219 127.339844 149.746094 C 126.839844 149.042969 126.375 148.316406 125.949219 147.566406 C 125.519531 146.820312 125.125 146.050781 124.769531 145.265625 C 124.414062 144.480469 124.097656 143.679688 123.816406 142.863281 C 123.539062 142.046875 123.296875 141.21875 123.097656 140.378906 C 122.898438 139.539062 122.738281 138.691406 122.621094 137.835938 C 122.5 136.984375 122.421875 136.125 122.382812 135.261719 C 122.382812 135.125 122.382812 134.980469 122.382812 134.839844 C 122.382812 134.703125 122.382812 134.371094 122.382812 134.140625 C 122.382812 133.910156 122.382812 133.8125 122.382812 133.640625 C 122.40625 132.367188 122.519531 131.101562 122.722656 129.84375 C 122.761719 129.613281 122.792969 129.382812 122.839844 129.183594 C 122.835938 129.164062 122.835938 129.140625 122.839844 129.117188 C 123.125 127.625 123.53125 126.164062 124.058594 124.738281 C 124.589844 123.3125 125.234375 121.9375 125.992188 120.621094 C 126.753906 119.304688 127.621094 118.058594 128.589844 116.886719 C 129.558594 115.714844 130.621094 114.628906 131.773438 113.636719 C 132.925781 112.644531 134.152344 111.753906 135.453125 110.964844 C 136.757812 110.179688 138.117188 109.503906 139.53125 108.945312 C 140.945312 108.386719 142.398438 107.953125 143.886719 107.636719 C 145.375 107.324219 146.882812 107.136719 148.402344 107.074219 L 149.484375 107.074219 C 150.371094 107.074219 151.253906 107.121094 152.136719 107.207031 C 153.019531 107.296875 153.894531 107.429688 154.761719 107.601562 C 155.632812 107.777344 156.492188 107.992188 157.339844 108.25 C 158.1875 108.507812 159.019531 108.808594 159.839844 109.148438 C 160.65625 109.488281 161.457031 109.867188 162.238281 110.285156 C 163.019531 110.703125 163.777344 111.15625 164.515625 111.648438 C 165.25 112.144531 165.960938 112.671875 166.648438 113.230469 C 167.332031 113.792969 167.988281 114.390625 168.613281 115.015625 C 169.242188 115.640625 169.835938 116.296875 170.398438 116.984375 C 170.960938 117.667969 171.488281 118.378906 171.980469 119.113281 C 172.472656 119.851562 172.929688 120.609375 173.347656 121.390625 C 173.765625 122.171875 174.144531 122.972656 174.484375 123.789062 C 174.824219 124.609375 175.125 125.441406 175.382812 126.289062 C 175.640625 127.136719 175.855469 127.996094 176.03125 128.863281 C 176.203125 129.734375 176.335938 130.609375 176.425781 131.488281 C 176.511719 132.371094 176.558594 133.253906 176.558594 134.140625 Z M 176.558594 134.140625"/><path fill="#F2F2F2" d="M 122.304688 137.011719 C 122.304688 137.902344 122.347656 138.789062 122.4375 139.671875 C 122.523438 140.554688 122.652344 141.433594 122.828125 142.304688 C 123 143.175781 123.214844 144.039062 123.472656 144.886719 C 123.730469 145.738281 124.03125 146.574219 124.371094 147.394531 C 124.710938 148.214844 125.089844 149.019531 125.507812 149.800781 C 125.929688 150.585938 126.386719 151.347656 126.878906 152.085938 C 127.371094 152.824219 127.902344 153.539062 128.464844 154.226562 C 129.03125 154.910156 129.625 155.570312 130.253906 156.199219 C 130.882812 156.824219 131.539062 157.421875 132.226562 157.984375 C 132.914062 158.550781 133.628906 159.078125 134.367188 159.570312 C 135.105469 160.066406 135.867188 160.523438 136.652344 160.941406 C 137.433594 161.359375 138.238281 161.738281 139.058594 162.078125 C 139.878906 162.417969 140.714844 162.71875 141.566406 162.976562 C 142.417969 163.234375 143.277344 163.449219 144.148438 163.625 C 145.023438 163.796875 145.898438 163.925781 146.785156 164.015625 C 147.667969 164.101562 148.554688 164.144531 149.445312 164.144531 C 150.332031 164.144531 151.21875 164.101562 152.105469 164.015625 C 152.988281 163.925781 153.867188 163.796875 154.738281 163.625 C 155.613281 163.449219 156.472656 163.234375 157.324219 162.976562 C 158.175781 162.71875 159.007812 162.417969 159.832031 162.078125 C 160.652344 161.738281 161.453125 161.359375 162.238281 160.941406 C 163.023438 160.523438 163.785156 160.066406 164.523438 159.570312 C 165.261719 159.078125 165.976562 158.550781 166.664062 157.984375 C 167.347656 157.421875 168.007812 156.824219 168.636719 156.199219 C 169.265625 155.570312 169.859375 154.910156 170.425781 154.226562 C 170.988281 153.539062 171.515625 152.824219 172.011719 152.085938 C 172.503906 151.347656 172.960938 150.585938 173.378906 149.800781 C 173.800781 149.019531 174.179688 148.214844 174.519531 147.394531 C 174.859375 146.574219 175.160156 145.738281 175.417969 144.886719 C 175.675781 144.039062 175.890625 143.175781 176.0625 142.304688 C 176.238281 141.433594 176.367188 140.554688 176.453125 139.671875 C 176.542969 138.789062 176.585938 137.902344 176.585938 137.011719 C 176.585938 136.144531 176.542969 135.28125 176.460938 134.417969 C 176.382812 135.25 176.265625 136.078125 176.109375 136.898438 C 175.957031 137.71875 175.765625 138.53125 175.535156 139.332031 C 175.304688 140.136719 175.039062 140.929688 174.734375 141.707031 C 174.433594 142.484375 174.097656 143.25 173.722656 143.996094 C 173.347656 144.742188 172.941406 145.472656 172.503906 146.183594 C 172.0625 146.890625 171.589844 147.578125 171.085938 148.246094 C 170.582031 148.914062 170.046875 149.554688 169.484375 150.171875 C 168.921875 150.789062 168.332031 151.378906 167.710938 151.941406 C 167.09375 152.503906 166.453125 153.035156 165.785156 153.539062 C 165.117188 154.042969 164.429688 154.511719 163.71875 154.953125 C 163.007812 155.390625 162.277344 155.796875 161.53125 156.167969 C 160.78125 156.542969 160.019531 156.878906 159.238281 157.179688 C 158.460938 157.480469 157.667969 157.746094 156.863281 157.972656 C 156.0625 158.203125 155.246094 158.394531 154.425781 158.546875 C 153.605469 158.699219 152.777344 158.816406 151.945312 158.894531 C 151.113281 158.96875 150.28125 159.007812 149.445312 159.007812 C 148.609375 159.007812 147.777344 158.96875 146.945312 158.894531 C 146.113281 158.816406 145.285156 158.699219 144.464844 158.546875 C 143.640625 158.394531 142.828125 158.203125 142.027344 157.972656 C 141.222656 157.746094 140.429688 157.480469 139.652344 157.179688 C 138.871094 156.878906 138.109375 156.542969 137.359375 156.167969 C 136.613281 155.796875 135.882812 155.390625 135.171875 154.953125 C 134.460938 154.511719 133.773438 154.042969 133.105469 153.539062 C 132.4375 153.035156 131.796875 152.503906 131.175781 151.941406 C 130.558594 151.378906 129.96875 150.789062 129.40625 150.171875 C 128.84375 149.554688 128.308594 148.914062 127.804688 148.246094 C 127.300781 147.578125 126.828125 146.890625 126.386719 146.183594 C 125.945312 145.472656 125.539062 144.742188 125.167969 143.996094 C 124.792969 143.25 124.457031 142.484375 124.152344 141.707031 C 123.851562 140.929688 123.585938 140.136719 123.355469 139.332031 C 123.125 138.53125 122.933594 137.71875 122.78125 136.898438 C 122.625 136.078125 122.507812 135.25 122.429688 134.417969 C 122.34375 135.28125 122.304688 136.144531 122.304688 137.011719 Z M 122.304688 137.011719"/><path fill="#3A1811" d="M 153.703125 120.492188 C 153.625 120.054688 153.59375 119.617188 153.609375 119.175781 C 153.625 118.730469 153.6875 118.292969 153.796875 117.863281 C 153.902344 117.433594 154.054688 117.023438 154.25 116.625 C 154.445312 116.226562 154.679688 115.855469 154.953125 115.503906 C 155.230469 115.15625 155.535156 114.84375 155.878906 114.558594 C 156.21875 114.277344 156.585938 114.03125 156.976562 113.824219 C 157.371094 113.621094 157.777344 113.457031 158.207031 113.339844 C 158.632812 113.21875 159.066406 113.144531 159.507812 113.117188 C 159.953125 113.089844 160.390625 113.109375 160.832031 113.175781 C 161.269531 113.242188 161.695312 113.351562 162.109375 113.507812 C 162.523438 113.664062 162.917969 113.859375 163.292969 114.101562 C 163.664062 114.339844 164.007812 114.613281 164.324219 114.925781 C 164.640625 115.238281 164.917969 115.578125 165.160156 115.949219 C 165.402344 116.320312 165.605469 116.710938 165.765625 117.125 C 165.925781 117.539062 166.039062 117.964844 166.109375 118.398438 C 166.179688 118.835938 166.203125 119.277344 166.179688 119.71875 C 166.160156 120.164062 166.089844 120.597656 165.976562 121.027344 C 165.859375 121.453125 165.703125 121.863281 165.5 122.257812 C 165.296875 122.652344 165.058594 123.023438 164.777344 123.367188 C 164.5 123.710938 164.1875 124.019531 163.839844 124.296875 C 163.496094 124.574219 163.125 124.8125 162.730469 125.011719 C 162.332031 125.210938 161.921875 125.367188 161.492188 125.480469 C 161.0625 125.59375 160.628906 125.660156 160.183594 125.679688 C 159.742188 125.699219 159.304688 125.671875 158.867188 125.601562 C 158.222656 125.492188 157.613281 125.292969 157.035156 124.996094 C 156.457031 124.699219 155.9375 124.324219 155.472656 123.867188 C 155.011719 123.40625 154.628906 122.890625 154.328125 122.316406 C 154.023438 121.742188 153.816406 121.132812 153.703125 120.492188 Z M 153.703125 120.492188"/><path fill="#823E2E" d="M 206.734375 171.867188 C 206.734375 172.445312 206.65625 173 206.496094 173.53125 C 206.335938 174.0625 206.109375 174.535156 205.816406 174.941406 C 205.523438 175.351562 205.183594 175.664062 204.800781 175.886719 C 204.414062 176.105469 204.015625 176.214844 203.597656 176.214844 C 203.183594 176.214844 202.785156 176.105469 202.398438 175.886719 C 202.015625 175.664062 201.675781 175.351562 201.382812 174.941406 C 201.089844 174.535156 200.863281 174.0625 200.703125 173.53125 C 200.542969 173 200.464844 172.445312 200.464844 171.867188 C 200.464844 171.289062 200.542969 170.734375 200.703125 170.203125 C 200.863281 169.667969 201.089844 169.199219 201.382812 168.792969 C 201.675781 168.382812 202.015625 168.070312 202.398438 167.847656 C 202.785156 167.628906 203.183594 167.515625 203.597656 167.515625 C 204.015625 167.515625 204.414062 167.628906 204.800781 167.847656 C 205.183594 168.070312 205.523438 168.382812 205.816406 168.792969 C 206.109375 169.199219 206.335938 169.667969 206.496094 170.203125 C 206.65625 170.734375 206.734375 171.289062 206.734375 171.867188 Z M 206.734375 171.867188"/><path fill="#4F2014" d="M 206.175781 171.867188 C 206.175781 172.445312 206.101562 173 205.957031 173.53125 C 205.8125 174.0625 205.605469 174.535156 205.339844 174.941406 C 205.070312 175.351562 204.761719 175.664062 204.414062 175.886719 C 204.0625 176.105469 203.699219 176.214844 203.320312 176.214844 C 202.945312 176.214844 202.582031 176.105469 202.230469 175.886719 C 201.882812 175.664062 201.574219 175.351562 201.304688 174.941406 C 201.039062 174.535156 200.832031 174.0625 200.6875 173.53125 C 200.542969 173 200.46875 172.445312 200.46875 171.867188 C 200.46875 171.289062 200.542969 170.734375 200.6875 170.203125 C 200.832031 169.667969 201.039062 169.199219 201.304688 168.792969 C 201.574219 168.382812 201.882812 168.070312 202.230469 167.847656 C 202.582031 167.628906 202.945312 167.515625 203.320312 167.515625 C 203.699219 167.515625 204.0625 167.628906 204.414062 167.847656 C 204.761719 168.070312 205.070312 168.382812 205.339844 168.792969 C 205.605469 169.199219 205.8125 169.667969 205.957031 170.203125 C 206.101562 170.734375 206.175781 171.289062 206.175781 171.867188 Z M 206.175781 171.867188"/><path fill="#823E2E" d="M 176.070312 171.867188 C 176.070312 172.445312 175.992188 173 175.832031 173.53125 C 175.671875 174.0625 175.445312 174.535156 175.152344 174.941406 C 174.855469 175.351562 174.519531 175.664062 174.132812 175.886719 C 173.75 176.105469 173.351562 176.214844 172.933594 176.214844 C 172.519531 176.214844 172.117188 176.105469 171.734375 175.886719 C 171.351562 175.664062 171.011719 175.351562 170.714844 174.941406 C 170.421875 174.535156 170.195312 174.0625 170.035156 173.53125 C 169.878906 173 169.796875 172.445312 169.796875 171.867188 C 169.796875 171.289062 169.878906 170.734375 170.035156 170.203125 C 170.195312 169.667969 170.421875 169.199219 170.714844 168.792969 C 171.011719 168.382812 171.351562 168.070312 171.734375 167.847656 C 172.117188 167.628906 172.519531 167.515625 172.933594 167.515625 C 173.351562 167.515625 173.75 167.628906 174.132812 167.847656 C 174.519531 168.070312 174.855469 168.382812 175.152344 168.792969 C 175.445312 169.199219 175.671875 169.667969 175.832031 170.203125 C 175.992188 170.734375 176.070312 171.289062 176.070312 171.867188 Z M 176.070312 171.867188"/><path fill="#4F2014" d="M 175.507812 171.867188 C 175.507812 172.445312 175.4375 173 175.292969 173.53125 C 175.148438 174.0625 174.941406 174.535156 174.671875 174.941406 C 174.40625 175.351562 174.097656 175.664062 173.75 175.886719 C 173.398438 176.105469 173.035156 176.214844 172.65625 176.214844 C 172.277344 176.214844 171.914062 176.105469 171.566406 175.886719 C 171.214844 175.664062 170.90625 175.351562 170.640625 174.941406 C 170.371094 174.535156 170.167969 174.0625 170.023438 173.53125 C 169.878906 173 169.804688 172.445312 169.804688 171.867188 C 169.804688 171.289062 169.878906 170.734375 170.023438 170.203125 C 170.167969 169.667969 170.371094 169.199219 170.640625 168.792969 C 170.90625 168.382812 171.214844 168.070312 171.566406 167.847656 C 171.914062 167.628906 172.277344 167.515625 172.65625 167.515625 C 173.035156 167.515625 173.398438 167.628906 173.75 167.847656 C 174.097656 168.070312 174.40625 168.382812 174.671875 168.792969 C 174.941406 169.199219 175.148438 169.667969 175.292969 170.203125 C 175.4375 170.734375 175.507812 171.289062 175.507812 171.867188 Z M 175.507812 171.867188"/><g clip-path="url(#a)"><path fill="#6FDDCB" d="M 306.136719 172.425781 L 306.136719 313.054688 L 210.101562 352.515625 L 208.082031 201.089844 Z M 306.136719 172.425781"/></g><g clip-path="url(#b)"><path fill="#5DCEBE" d="M 69.839844 172.425781 L 69.839844 313.058594 L 210.101562 352.515625 L 208.082031 201.089844 Z M 69.839844 172.425781"/></g><g clip-path="url(#c)"><path fill="#86F2DD" d="M 69.839844 170.910156 L 47.726562 241.34375 L 191.53125 278.152344 L 208.589844 200.246094 Z M 69.839844 170.910156"/></g><g clip-path="url(#d)"><path fill="#86F2DD" d="M 208.589844 200.246094 L 226.027344 278.152344 L 327.375 231.625 L 305.636719 161.972656 Z M 208.589844 200.246094"/></g><path fill="#FFF2E9" d="M 269.332031 170.855469 C 269.273438 170.796875 269.207031 170.75 269.148438 170.699219 C 267.574219 169.359375 265.847656 168.257812 263.964844 167.398438 C 261.328125 166.03125 258.519531 165.316406 255.546875 165.261719 C 255.230469 165.261719 254.886719 165.261719 254.570312 165.261719 C 252.222656 165.257812 249.90625 165.542969 247.625 166.117188 C 241.339844 167.707031 236.316406 171.09375 233.828125 174.960938 C 232.429688 177.265625 231.398438 179.71875 230.726562 182.328125 C 230.183594 184.308594 229.90625 186.324219 229.894531 188.378906 C 229.878906 190.738281 230.292969 193.019531 231.140625 195.21875 C 231.992188 197.421875 233.210938 199.390625 234.804688 201.132812 C 238.105469 204.828125 241.488281 205.539062 244.351562 203.8125 C 245.671875 203.019531 247.757812 200.386719 248.457031 198.113281 L 248.914062 196.839844 C 248.921875 196.855469 248.933594 196.871094 248.945312 196.878906 C 249.480469 197.570312 250.082031 198.195312 250.75 198.753906 C 252.933594 200.589844 255.054688 201.574219 257.074219 201.394531 C 257.175781 201.390625 257.277344 201.378906 257.378906 201.363281 C 258.25 201.242188 259.050781 200.9375 259.78125 200.445312 C 261.101562 199.605469 262.625 196.523438 263.128906 194.253906 C 263.246094 194.367188 263.359375 194.476562 263.472656 194.5625 C 265.273438 196.15625 268.582031 197.757812 270 197.863281 C 270.472656 197.890625 270.941406 197.847656 271.398438 197.730469 C 274.304688 197.164062 277.097656 194.328125 277.339844 189.734375 C 277.824219 180.183594 273.253906 174.203125 269.332031 170.855469 Z M 269.332031 170.855469"/><path fill="#FCD2B6" d="M 263.140625 194.285156 C 263.140625 194.285156 257.351562 185.046875 258.671875 176.660156 C 258.671875 176.660156 262.277344 193.917969 271.417969 197.777344 C 271.394531 197.75 268.433594 199.535156 263.140625 194.285156 Z M 263.140625 194.285156"/><path fill="#FCD2B6" d="M 248.945312 196.914062 C 248.945312 196.914062 243.15625 187.671875 244.476562 179.285156 C 244.476562 179.285156 248.226562 197.554688 257.371094 201.386719 C 257.378906 201.375 253.015625 202.285156 248.945312 196.914062 Z M 248.945312 196.914062"/><path fill="#FFF2E9" d="M 103.574219 186.464844 C 103.808594 191.085938 106.597656 193.898438 109.515625 194.464844 C 109.976562 194.582031 110.445312 194.625 110.917969 194.597656 C 112.335938 194.511719 115.644531 192.90625 117.445312 191.296875 C 117.566406 191.199219 117.679688 191.097656 117.789062 190.988281 C 118.292969 193.257812 119.835938 196.339844 121.136719 197.175781 C 121.867188 197.667969 122.671875 197.976562 123.546875 198.09375 C 123.644531 198.113281 123.742188 198.125 123.84375 198.128906 C 125.863281 198.28125 127.984375 197.296875 130.175781 195.488281 C 130.84375 194.929688 131.445312 194.304688 131.976562 193.613281 L 131.976562 193.574219 L 132.4375 194.847656 C 133.136719 197.117188 135.238281 199.75 136.546875 200.542969 C 139.402344 202.273438 142.785156 201.558594 146.089844 197.863281 C 147.683594 196.125 148.902344 194.152344 149.75 191.953125 C 150.597656 189.75 151.011719 187.472656 150.996094 185.113281 C 150.984375 183.058594 150.707031 181.042969 150.171875 179.0625 C 149.507812 176.449219 148.480469 173.984375 147.089844 171.675781 C 144.597656 167.808594 139.574219 164.414062 133.289062 162.832031 C 131.019531 162.253906 128.710938 161.964844 126.363281 161.960938 C 126.035156 161.960938 125.703125 161.960938 125.394531 161.960938 C 122.410156 162.011719 119.59375 162.722656 116.945312 164.09375 C 115.066406 164.953125 113.339844 166.050781 111.769531 167.390625 C 111.710938 167.445312 111.636719 167.492188 111.578125 167.550781 C 107.667969 170.929688 103.09375 176.910156 103.574219 186.464844 Z M 103.574219 186.464844"/><path fill="#FCD2B6" d="M 117.777344 191.011719 C 117.777344 191.011719 123.566406 181.773438 122.238281 173.382812 C 122.238281 173.382812 118.632812 190.644531 109.492188 194.503906 C 109.492188 194.476562 112.480469 196.261719 117.777344 191.011719 Z M 117.777344 191.011719"/><path fill="#FCD2B6" d="M 131.964844 193.640625 C 131.964844 193.640625 137.753906 184.398438 136.425781 176.011719 C 136.425781 176.011719 132.683594 194.28125 123.53125 198.113281 C 123.511719 198.113281 127.898438 199.011719 131.964844 193.640625 Z M 131.964844 193.640625"/><g clip-path="url(#e)"><path fill="#CDEBFC" d="M 188.871094 22.515625 C 188.417969 22.527344 187.980469 22.621094 187.5625 22.804688 C 187.148438 22.988281 186.78125 23.242188 186.464844 23.570312 C 186.152344 23.898438 185.910156 24.273438 185.742188 24.695312 C 185.578125 25.121094 185.496094 25.558594 185.503906 26.011719 L 185.722656 37.695312 C 185.730469 38.148438 185.828125 38.585938 186.011719 39 C 186.195312 39.417969 186.449219 39.785156 186.777344 40.097656 C 187.105469 40.414062 187.480469 40.65625 187.902344 40.820312 C 188.328125 40.988281 188.765625 41.070312 189.21875 41.0625 C 189.449219 41.070312 189.679688 41.054688 189.902344 41.015625 C 190.128906 40.976562 190.347656 40.914062 190.5625 40.828125 C 190.773438 40.742188 190.976562 40.632812 191.167969 40.503906 C 191.355469 40.375 191.53125 40.230469 191.691406 40.0625 C 191.847656 39.898438 191.988281 39.71875 192.109375 39.523438 C 192.230469 39.328125 192.328125 39.121094 192.40625 38.90625 C 192.484375 38.691406 192.539062 38.46875 192.570312 38.242188 C 192.597656 38.011719 192.605469 37.785156 192.585938 37.558594 L 192.351562 25.894531 C 192.34375 25.441406 192.25 25.003906 192.070312 24.585938 C 191.890625 24.167969 191.636719 23.800781 191.308594 23.484375 C 190.984375 23.167969 190.609375 22.925781 190.1875 22.757812 C 189.765625 22.589844 189.324219 22.507812 188.871094 22.515625 Z M 188.871094 22.515625"/></g><path fill="#CDEBFC" d="M 143.320312 44.367188 C 142.996094 44.042969 142.621094 43.796875 142.199219 43.625 C 141.777344 43.449219 141.335938 43.367188 140.878906 43.371094 C 140.421875 43.375 139.984375 43.46875 139.5625 43.648438 C 139.144531 43.832031 138.777344 44.085938 138.460938 44.417969 C 138.144531 44.746094 137.902344 45.125 137.738281 45.550781 C 137.574219 45.976562 137.5 46.417969 137.515625 46.875 C 137.527344 47.332031 137.632812 47.769531 137.820312 48.183594 C 138.011719 48.601562 138.273438 48.960938 138.613281 49.273438 L 147.007812 57.335938 C 147.335938 57.636719 147.707031 57.867188 148.125 58.019531 C 148.542969 58.175781 148.972656 58.246094 149.417969 58.230469 C 149.859375 58.21875 150.285156 58.121094 150.691406 57.941406 C 151.097656 57.757812 151.457031 57.507812 151.761719 57.1875 C 152.070312 56.867188 152.308594 56.5 152.46875 56.085938 C 152.632812 55.675781 152.714844 55.246094 152.710938 54.800781 C 152.707031 54.355469 152.617188 53.929688 152.445312 53.519531 C 152.273438 53.109375 152.03125 52.746094 151.714844 52.433594 Z M 143.320312 44.367188"/><path fill="#CDEBFC" d="M 235.25 42.507812 L 227.160156 50.894531 C 226.824219 51.214844 226.566406 51.589844 226.382812 52.015625 C 226.203125 52.441406 226.109375 52.886719 226.109375 53.347656 C 226.109375 53.8125 226.199219 54.257812 226.378906 54.683594 C 226.5625 55.109375 226.820312 55.484375 227.152344 55.804688 C 227.488281 56.125 227.871094 56.367188 228.304688 56.53125 C 228.738281 56.695312 229.1875 56.769531 229.648438 56.75 C 230.113281 56.730469 230.554688 56.621094 230.972656 56.421875 C 231.390625 56.222656 231.753906 55.949219 232.058594 55.601562 L 240.128906 47.199219 C 240.417969 46.871094 240.636719 46.5 240.78125 46.085938 C 240.925781 45.675781 240.992188 45.25 240.972656 44.8125 C 240.957031 44.375 240.855469 43.953125 240.675781 43.554688 C 240.496094 43.15625 240.246094 42.804688 239.933594 42.5 C 239.617188 42.199219 239.253906 41.964844 238.847656 41.800781 C 238.441406 41.636719 238.019531 41.554688 237.582031 41.554688 C 237.144531 41.550781 236.722656 41.632812 236.3125 41.796875 C 235.90625 41.957031 235.546875 42.191406 235.230469 42.492188 Z M 235.25 42.507812"/></svg>